<svg viewBox="0 0 23 24" fill="none" xmlns="http://www.w3.org/2000/svg">
<path fill-rule="evenodd" clip-rule="evenodd" d="M21.641 19.9272C21.4643 20.1011 21.384 20.3509 21.4256 20.5958L21.6926 22.1637C21.776 22.6523 21.3899 23.0491 20.9532 23.0491C20.8381 23.0491 20.719 23.0211 20.6039 22.9601L19.2055 22.2197C19.0964 22.1617 18.9763 22.1327 18.8562 22.1327C18.7361 22.1327 18.617 22.1617 18.5069 22.2197L17.1085 22.9601C16.9934 23.0211 16.8743 23.0491 16.7592 23.0491C16.3225 23.0491 15.9374 22.6523 16.0198 22.1637L16.2878 20.5958C16.3295 20.3509 16.2481 20.1011 16.0714 19.9272L14.94 18.817C14.4944 18.3793 14.7406 17.6179 15.3559 17.5279L16.92 17.2991C17.1641 17.2641 17.3755 17.1092 17.4847 16.8864L18.1833 15.4594C18.3213 15.1785 18.5892 15.0386 18.8562 15.0386C19.1242 15.0386 19.3911 15.1785 19.5291 15.4594L20.2288 16.8864C20.3379 17.1092 20.5483 17.2641 20.7935 17.2991L22.3565 17.5279C22.9719 17.6179 23.218 18.3793 22.7724 18.817L21.641 19.9272ZM10.5435 9.97517C10.3282 9.95718 10.1128 9.94219 9.8935 9.94219C9.69203 9.94219 9.49454 9.95718 9.29704 9.97217C7.95626 9.68037 6.94695 8.48021 6.94695 7.04421C6.94695 5.39136 8.28277 4.04629 9.92426 4.04629C11.5658 4.04629 12.9016 5.39136 12.9016 7.04421C12.9016 8.4832 11.8883 9.68737 10.5435 9.97517ZM1.99666 17.0962C1.99567 17.0752 1.98476 17.0582 1.98476 17.0373V3.04699C1.98476 2.49537 2.42937 2.04768 2.97719 2.04768H9.86075C7.1504 2.08266 4.96207 4.30311 4.96207 7.04121C4.96207 8.4842 5.57937 9.77631 6.55196 10.6887C4.07582 11.8459 2.28943 14.2432 1.99666 17.0962ZM14.4865 11.3972C14.1064 11.1254 13.7015 10.8865 13.2737 10.6837C14.2592 9.77031 14.8865 8.4862 14.8865 7.03122C14.8865 4.29412 12.6981 2.08266 9.98778 2.04768H16.8713C17.4192 2.04768 17.8638 2.49537 17.8638 3.04699V12.1307C17.8638 12.6323 18.2687 13.04 18.7669 13.04C19.5192 13.04 19.8486 12.6343 19.8486 12.1307V2.04768C19.8486 0.94345 18.9604 0.0490723 17.8638 0.0490723H1.98476C0.889103 0.0490723 -0.00012207 0.94345 -0.00012207 2.04768V18.0366C-0.00012207 19.1398 0.889103 20.0352 1.98476 20.0352H11.9985C12.4977 20.0352 12.9016 19.6275 12.9016 19.1258C12.9016 18.3683 12.4986 18.0366 11.9985 18.0366H3.94482C3.94383 18.0366 3.93887 17.9706 3.93887 17.9296C3.93887 14.8368 6.27804 12.2886 9.26826 11.9738C9.48561 12.0028 9.69997 12.0407 9.92426 12.0407C10.1366 12.0407 10.3381 11.9778 10.5426 11.9518C11.4834 12.0547 12.3538 12.0447 13.11 12.7532C14.1024 13.6806 15.603 12.1956 14.4865 11.3972Z" fill="currentColor"/>
</svg>
