<svg width="160" height="56" viewBox="0 0 160 56" fill="none" xmlns="http://www.w3.org/2000/svg">
<path d="M21 14H24C24.2 14 24.4 13.8 24.4 13.6C24.4 13.4 24.2 13.2 24 13.2H21C20.8 13.2 20.6 13.4 20.6 13.6C20.6 13.8 20.8 14 21 14ZM22.5 40.4C21.6 40.4 20.9 41.1 20.9 42C20.9 42.9 21.6 43.6 22.5 43.6C23.4 43.6 24.1 42.9 24.1 42C24 41.1 23.3 40.4 22.5 40.4ZM14.8 39H30.2V16.3H14.8V39ZM64.1 31.6C63.4 31.6 62.7 31.8 62.1 32.3C61.5 32.8 61.1 33.4 60.9 34.2C60.8 34.6 60.8 34.9 60.8 35.1V37.3C60.8 38.3 61.1 39.1 61.7 39.8C62.3 40.5 63.1 40.8 64 40.8C65.1 40.8 66 40.4 66.6 39.5C67.2 38.6 67.5 37.5 67.5 36.1C67.5 34.8 67.2 33.7 66.6 32.9C66 32 65.2 31.6 64.1 31.6ZM118 31.4C116.8 31.4 115.9 31.9 115.3 33C114.8 33.9 114.5 34.9 114.5 36.2C114.5 37.4 114.8 38.5 115.3 39.3C115.9 40.4 116.8 40.9 118 40.9C119.1 40.9 120 40.4 120.6 39.3C121.2 38.4 121.4 37.4 121.4 36.1C121.4 34.8 121.1 33.8 120.6 33C120 31.9 119.2 31.4 118 31.4ZM78.7 31.6C78 31.6 77.3 31.8 76.7 32.3C76.1 32.8 75.7 33.4 75.5 34.2C75.4 34.6 75.4 34.9 75.4 35.1V37.3C75.4 38.3 75.7 39.1 76.3 39.8C76.9 40.5 77.7 40.8 78.6 40.8C79.7 40.8 80.6 40.4 81.2 39.5C81.8 38.6 82.1 37.5 82.1 36.1C82.1 34.8 81.8 33.7 81.2 32.9C80.6 32 79.8 31.6 78.7 31.6ZM48.2 26.8C48 27.6 47.7 28.7 47.3 30.3L45.8 35.1H50.8L49.2 30.3C48.9 29.8 48.6 28.6 48.2 26.8ZM140.4 31.2C139.4 31.2 138.7 31.6 138 32.4C137.5 33 137.2 33.8 137.1 34.7H143.3C143.3 33.8 143.1 33.1 142.7 32.4C142.3 31.7 141.5 31.2 140.4 31.2ZM61.2 18.1C61.2 18 61.2 17.8 61.2 17.7V16.8C60 16.8 58.8 17 58.8 18.1C58.8 18.8 59.2 19.1 59.8 19.1C60.5 19.1 61 18.6 61.2 18.1ZM45.1 13.8C44.9 13.2 44.8 12.6 44.6 12C44.5 12.5 44.3 13.2 44.1 13.8L43.4 16.1H45.8L45.1 13.8ZM152.4 0H6.7C3 0 0 3 0 6.7V48.6C0 52.3 3 55.3 6.7 55.3H152.4C156.1 55.3 159.1 52.3 159.1 48.6V6.7C159.1 3 156.1 0 152.4 0ZM143.2 13.1C145.4 13.1 146.2 14.9 146.2 16.4C146.2 16.7 146.2 17 146.1 17.1H141.5C141.5 18.3 142.5 18.9 143.6 18.9C144.4 18.9 145 18.8 145.5 18.6L145.8 19.8C145.2 20.1 144.4 20.2 143.4 20.2C141.2 20.2 139.9 18.8 139.9 16.7C139.8 14.9 141 13.1 143.2 13.1ZM115.7 13.3L115.8 14.3C116.1 13.8 116.9 13.1 118 13.1C119.2 13.1 120.4 13.9 120.4 16V20.1H118.7V16.2C118.7 15.2 118.3 14.5 117.4 14.5C116.7 14.5 116.2 15 116 15.5C115.9 15.6 115.9 15.9 115.9 16V20H114.2V15.2C114.2 14.4 114.2 13.8 114.1 13.2H115.7V13.3ZM97.5 13.1C99.7 13.1 100.5 14.9 100.5 16.4C100.5 16.7 100.5 17 100.4 17.1H95.8C95.8 18.3 96.8 18.9 97.9 18.9C98.7 18.9 99.3 18.8 99.8 18.6L100.1 19.8C99.5 20.1 98.7 20.2 97.7 20.2C95.5 20.2 94.2 18.8 94.2 16.7C94.2 14.9 95.3 13.1 97.5 13.1ZM90.4 10.1H92.1V20.1H90.4V10.1ZM76.7 14.4C76 14.4 75.3 14.6 74.9 14.9L74.6 13.8C75.1 13.5 76 13.2 77.1 13.2C79.3 13.2 79.9 14.6 79.9 16.1V18.6C79.9 19.2 79.9 19.8 80 20.2H78.4L78.3 19.4C77.9 19.9 77.2 20.3 76.3 20.3C74.9 20.3 74.1 19.3 74.1 18.3C74.1 16.6 75.6 15.7 78.2 15.7V15.6C78.1 15.1 77.9 14.4 76.7 14.4ZM66.5 10.4C67.1 10.4 67.5 10.8 67.5 11.3C67.5 11.8 67.1 12.2 66.5 12.2C65.9 12.2 65.5 11.8 65.5 11.3C65.5 10.8 65.9 10.4 66.5 10.4ZM67.3 13.3V20.2H65.6V13.3H67.3ZM43.5 10.7H45.7L48.8 20.2H46.9L46 17.5H43L42.2 20.2H40.4L43.5 10.7ZM32 42.1C32 43.8 30.6 45.1 29 45.1H16C14.3 45.1 13 43.7 13 42.1V13.2C13 11.5 14.4 10.2 16 10.2H29C30.7 10.2 32 11.6 32 13.2V42.1ZM52.9 42.8L51.2 37.4H45.2L43.6 42.8H40.5L46.4 24.4H50.1L56.1 42.8H52.9ZM53.6 20.1H51.9L49.4 13.2H51.3L52.4 16.7C52.6 17.3 52.7 17.9 52.9 18.4C53 17.8 53.2 17.3 53.4 16.7L54.5 13.2H56.3L53.6 20.1ZM57.1 18.3C57.1 16.6 58.6 15.7 61.2 15.7V15.6C61.2 15.1 61 14.4 59.8 14.4C59.1 14.4 58.4 14.6 58 14.9L57.7 13.8C58.2 13.5 59.1 13.2 60.2 13.2C62.4 13.2 63 14.6 63 16.1V18.6C63 19.2 63 19.8 63.1 20.2H61.5L61.4 19.4C61 19.9 60.3 20.3 59.4 20.3C57.9 20.3 57.1 19.3 57.1 18.3ZM68.7 41.3C67.6 42.5 66.2 43 64.6 43C62.8 43 61.6 42.4 60.8 41.1V48.1H57.8V33.9C57.8 32.5 57.8 31 57.7 29.5H60.3L60.5 31.6H60.6C61.6 30 63.1 29.2 65.1 29.2C66.7 29.2 68 29.8 69 31.1C70 32.3 70.6 34 70.6 36C70.5 38.2 69.9 40 68.7 41.3ZM71.8 20.1H70V10.1H71.7V20.1H71.8ZM83.3 41.3C82.2 42.5 80.8 43 79.2 43C77.4 43 76.2 42.4 75.4 41.1V48.1H72.4V33.9C72.4 32.5 72.4 31 72.3 29.5H74.9L75.1 31.6H75.2C76.2 30 77.7 29.2 79.7 29.2C81.3 29.2 82.6 29.8 83.6 31.1C84.7 32.3 85.2 34 85.2 36C85.2 38.2 84.5 40 83.3 41.3ZM85.3 20.3C84.4 20.3 83.6 20 83.1 19.1L83 20.1H81.5C81.5 19.6 81.6 18.9 81.6 18.2V10.1H83.3V14.2C83.7 13.5 84.5 13.1 85.5 13.1C87.2 13.1 88.4 14.5 88.4 16.6C88.5 19.1 86.9 20.3 85.3 20.3ZM100.2 41.5C99 42.6 97.3 43.1 95.2 43.1C93.2 43.1 91.6 42.7 90.4 42L91.1 39.5C92.4 40.3 93.8 40.6 95.4 40.6C96.5 40.6 97.4 40.3 98 39.8C98.6 39.3 98.9 38.6 98.9 37.8C98.9 37.1 98.6 36.4 98.1 35.9C97.6 35.4 96.7 34.9 95.6 34.5C92.4 33.3 90.8 31.5 90.8 29.2C90.8 27.7 91.4 26.4 92.5 25.5C93.6 24.5 95.2 24.1 97 24.1C98.7 24.1 100.1 24.4 101.2 25L100.5 27.4C99.5 26.8 98.3 26.6 97 26.6C96 26.6 95.1 26.9 94.6 27.4C94.1 27.9 93.9 28.4 93.9 29.1C93.9 29.8 94.2 30.4 94.7 30.9C95.2 31.3 96.1 31.8 97.4 32.3C99 32.9 100.2 33.7 100.9 34.5C101.6 35.4 102 36.4 102 37.7C101.9 39.2 101.3 40.5 100.2 41.5ZM110.6 31.7H107.3V38.2C107.3 39.8 107.9 40.7 109 40.7C109.5 40.7 110 40.7 110.3 40.6L110.4 42.8C109.8 43 109.1 43.1 108.1 43.1C106.9 43.1 106 42.7 105.4 42C104.7 41.3 104.4 40.1 104.4 38.4V31.7H102.5V29.5H104.4V27.1L107.3 26.2V29.5H110.6V31.7ZM109 20.3C107.1 20.3 105.6 19 105.6 16.8C105.6 14.5 107.1 13.2 109.1 13.2C111.1 13.2 112.5 14.6 112.5 16.7C112.5 19.2 110.7 20.3 109 20.3ZM122.8 41.1C121.6 42.4 119.9 43.1 117.9 43.1C115.9 43.1 114.4 42.5 113.2 41.2C112 39.9 111.5 38.3 111.5 36.3C111.5 34.2 112.1 32.5 113.3 31.2C114.5 29.9 116.1 29.2 118.1 29.2C120.1 29.2 121.6 29.8 122.8 31.1C123.9 32.4 124.5 34 124.5 36C124.5 38.1 123.9 39.8 122.8 41.1ZM125.8 13.3H126.8V12L128.5 11.5V13.3H130.1V14.6H128.5V17.6C128.5 18.4 128.7 18.9 129.4 18.9C129.7 18.9 129.9 18.9 130.1 18.8V20.1C129.8 20.2 129.4 20.3 128.8 20.3C128.2 20.3 127.6 20.1 127.3 19.7C126.9 19.3 126.8 18.7 126.8 17.8V14.6H125.8V13.3ZM133.4 32.1C133.1 32 132.8 32 132.5 32C131.5 32 130.7 32.4 130.1 33.2C129.6 33.9 129.4 34.8 129.4 35.8V42.8H126.4V33.7C126.4 32.2 126.4 30.8 126.3 29.5H128.9L129 32H129.1C129.4 31.1 129.9 30.4 130.6 29.9C131.3 29.4 132 29.2 132.7 29.2C133 29.2 133.2 29.2 133.4 29.2V32.1ZM133.9 16V20.1H132.2V10.1H133.9V14.2C134.1 13.9 134.4 13.6 134.8 13.4C135.2 13.2 135.6 13.1 136 13.1C137.2 13.1 138.4 13.9 138.4 16.1V20.1H136.7V16.2C136.7 15.2 136.3 14.5 135.4 14.5C134.7 14.5 134.2 15 134 15.5C133.9 15.7 133.9 15.8 133.9 16ZM146.1 36.9H137.2C137.2 38.2 137.7 39.2 138.5 39.9C139.2 40.5 140.2 40.8 141.4 40.8C142.7 40.8 143.9 40.6 145 40.2L145.5 42.3C144.2 42.9 142.8 43.1 141 43.1C138.9 43.1 137.3 42.5 136.1 41.3C134.9 40.1 134.3 38.5 134.3 36.4C134.3 34.4 134.9 32.7 135.9 31.4C137.1 30 138.6 29.3 140.6 29.3C142.5 29.3 144 30 145 31.4C145.8 32.5 146.2 33.9 146.2 35.6C146.2 36 146.1 36.5 146.1 36.9ZM85 14.5C84.3 14.5 83.6 15 83.5 15.8C83.5 15.9 83.4 16.1 83.4 16.3V17.4C83.4 17.5 83.4 17.7 83.4 17.8C83.6 18.5 84.2 19 84.9 19C86 19 86.6 18.1 86.6 16.7C86.7 15.5 86.1 14.5 85 14.5ZM97.4 14.3C96.3 14.3 95.9 15.3 95.8 16H98.8C98.9 15.4 98.6 14.3 97.4 14.3ZM109.1 14.4C107.9 14.4 107.4 15.6 107.4 16.7C107.4 18 108.1 19 109.1 19C110.1 19 110.8 18 110.8 16.7C110.7 15.6 110.2 14.4 109.1 14.4ZM75.7 18.1C75.7 18.8 76.1 19.1 76.7 19.1C77.4 19.1 77.9 18.6 78.1 18.2C78.1 18.1 78.1 17.9 78.1 17.8V16.9C76.9 16.8 75.7 17 75.7 18.1ZM143.1 14.3C142 14.3 141.6 15.3 141.5 16H144.5C144.5 15.4 144.2 14.3 143.1 14.3Z" fill="#58595B"/>
</svg>
