<svg width="14" height="20" viewBox="0 0 14 20" fill="none" xmlns="http://www.w3.org/2000/svg">
<path fill-rule="evenodd" clip-rule="evenodd" d="M13.008 4.03326C13.5572 4.03527 14.002 4.48508 14 5.03807L13.9294 18.0024C13.9264 19.1084 13.0329 20.003 11.9335 20L1.98394 19.977C0.885516 19.9739 -0.00297736 19.0743 7.49866e-06 17.9683L0.0796038 1.9986C0.0825886 0.891612 0.976057 -0.00299786 2.07448 7.55028e-06L8.0442 0.0150346C9.14363 0.01804 10.0321 0.917659 10.0291 2.02365L9.96048 13.9862C9.9575 15.0932 9.06403 15.9878 7.9656 15.9848L5.9757 15.9788C4.87627 15.9758 3.98778 15.0761 3.99076 13.9691L4.05046 5.01203C4.05245 4.45903 4.49919 4.01223 5.0484 4.01323C5.59761 4.01523 6.04236 4.46504 6.04037 5.01804L5.98366 12.9733C5.98266 13.5263 6.42641 13.9762 6.97562 13.9782C7.52583 13.9792 7.97257 13.5324 7.97356 12.9794L8.03624 3.02044C8.03724 2.46745 7.59349 2.01664 7.04328 2.01563L3.06446 2.00662C2.51425 2.00562 2.06752 2.45242 2.06653 3.00541L1.9929 16.9675C1.99091 17.5235 2.43764 17.9753 2.98885 17.9764L10.9405 17.9934C11.4917 17.9954 11.9404 17.5456 11.9424 16.9906L12.0101 5.03206C12.0121 4.47907 12.4588 4.03126 13.008 4.03326Z" fill="currentColor"/>
</svg>
