<svg width="18" height="18" viewBox="0 0 18 18" fill="none" xmlns="http://www.w3.org/2000/svg">
<path d="M10.3857 16.114C10.245 16.3551 10.0431 16.5552 9.80014 16.6943C9.5572 16.8334 9.28177 16.9067 9.00142 16.9067C8.72107 16.9067 8.44563 16.8334 8.2027 16.6943C7.95976 16.5552 7.75785 16.3551 7.61717 16.114M17.0028 12.9321H1C1.63663 12.9321 2.24719 12.6807 2.69736 12.2331C3.14752 11.7856 3.40043 11.1786 3.40043 10.5457V6.56831C3.40043 5.09151 3.99053 3.67518 5.04092 2.63092C6.09131 1.58666 7.51594 1 9.00142 1C10.4869 1 11.9115 1.58666 12.9619 2.63092C14.0123 3.67518 14.6024 5.09151 14.6024 6.56831V10.5457C14.6024 11.1786 14.8553 11.7856 15.3055 12.2331C15.7556 12.6807 16.3662 12.9321 17.0028 12.9321Z" stroke="currentColor" stroke-width="1.5" stroke-linecap="round" stroke-linejoin="round"/>
</svg>
