<svg viewBox="0 0 18 16" fill="none" xmlns="http://www.w3.org/2000/svg">
<path d="M1 1H5.66667C6.49178 1 7.28311 1.32778 7.86655 1.91122C8.45 2.49467 8.77778 3.28599 8.77778 4.11111V15C8.77778 14.3812 8.53195 13.7877 8.09436 13.3501C7.65678 12.9125 7.06328 12.6667 6.44444 12.6667H1V1Z" stroke="currentColor" stroke-width="1.5" stroke-linecap="round" stroke-linejoin="round"/>
<path d="M16.559 1H11.8924C11.0672 1 10.2759 1.32778 9.69247 1.91122C9.10903 2.49467 8.78125 3.28599 8.78125 4.11111V15C8.78125 14.3812 9.02708 13.7877 9.46467 13.3501C9.90225 12.9125 10.4957 12.6667 11.1146 12.6667H16.559V1Z" stroke="currentColor" stroke-width="1.5" stroke-linecap="round" stroke-linejoin="round"/>
</svg>
