<svg width="20" height="20" viewBox="0 0 20 20" fill="none" xmlns="http://www.w3.org/2000/svg">
<path fill-rule="evenodd" clip-rule="evenodd" d="M11 17C11 17.552 10.552 18 10 18C9.448 18 9 17.552 9 17V3C9 2.448 9.448 2 10 2C10.552 2 11 2.448 11 3V17ZM11 0H9C7.895 0 7 0.895 7 2V18C7 19.105 7.895 20 9 20H11C12.105 20 13 19.105 13 18V2C13 0.895 12.105 0 11 0ZM4 17C4 17.552 3.552 18 3 18C2.448 18 2 17.552 2 17V7C2 6.448 2.448 6 3 6C3.552 6 4 6.448 4 7V17ZM4 4H2C0.895 4 0 4.895 0 6V18C0 19.105 0.895 20 2 20H4C5.105 20 6 19.105 6 18V6C6 4.895 5.105 4 4 4ZM18 17C18 17.552 17.552 18 17 18C16.448 18 16 17.552 16 17V13C16 12.448 16.448 12 17 12C17.552 12 18 12.448 18 13V17ZM18 10H16C14.895 10 14 10.895 14 12V18C14 19.105 14.895 20 16 20H18C19.105 20 20 19.105 20 18V12C20 10.895 19.105 10 18 10Z" fill="currentColor"/>
</svg>
