<svg width="20" height="20" viewBox="0 0 20 20" fill="none" xmlns="http://www.w3.org/2000/svg">
<path fill-rule="evenodd" clip-rule="evenodd" d="M12 10.0785C12 9.528 12.448 9.08118 13 9.08118C13.552 9.08118 14 9.528 14 10.0785C14 10.6291 13.552 11.0759 13 11.0759C12.448 11.0759 12 10.6291 12 10.0785ZM12.75 13.0187L16 16.9553H4L8.518 11.024L11.354 15.0653L12.75 13.0187ZM18 17.06C18 17.6106 17.552 17.9527 17 17.9527H3C2.448 17.9527 2 17.6106 2 17.06V3.09704C2 2.5465 2.448 1.99496 3 1.99496H12V6.08911C12 7.19019 12.895 7.9791 14 7.9791H18V17.06ZM19.707 5.77095L14.293 0.344332C14.105 0.157827 13.851 0.000244141 13.586 0.000244141H2V0.0531041C0.895 0.0531041 0 0.97167 0 2.07375V2.09968V18.0574C0 19.1585 0.895 20.0002 2 20.0002V19.9474H18V20.0002C19.105 20.0002 20 19.1325 20 18.0315V6.50201C20 6.23772 19.895 5.95746 19.707 5.77095Z" fill="currentColor"/>
</svg>
