<svg width="24" height="40" viewBox="0 0 24 40" fill="none" xmlns="http://www.w3.org/2000/svg">
<path d="M7.84976 19.9915L22.7249 34.9561C23.1345 35.3672 23.3598 35.9168 23.3598 36.5028C23.3598 37.0891 23.1345 37.6384 22.7249 38.0501L21.4215 39.3607C21.0125 39.773 20.4659 40 19.8833 40C19.3008 40 18.7548 39.773 18.3455 39.3607L0.634274 21.5441C0.223393 21.1311 -0.00160618 20.5792 1.02353e-05 19.9925C-0.00160609 19.4033 0.22307 18.852 0.634275 18.4387L18.329 0.639352C18.7383 0.226995 19.2843 1.56027e-06 19.8672 1.60743e-06C20.4497 1.65456e-06 20.9957 0.226995 21.4053 0.639353L22.7084 1.94992C23.5564 2.80293 23.5564 4.19155 22.7084 5.04423L7.84976 19.9915Z" fill="white"/>
</svg>
