<svg width="24" height="40" viewBox="0 0 24 40" fill="none" xmlns="http://www.w3.org/2000/svg">
<path d="M15.5099 19.9915L0.634712 34.9561C0.225124 35.3672 -0.000196778 35.9168 -0.000196732 36.5028C-0.000196686 37.0891 0.225124 37.6384 0.634712 38.0501L1.93816 39.3607C2.3471 39.773 2.89376 40 3.4763 40C4.05884 40 4.60485 39.773 5.01411 39.3607L22.7253 21.5441C23.1362 21.1311 23.3612 20.5792 23.3596 19.9925C23.3612 19.4033 23.1365 18.852 22.7253 18.4387L5.03059 0.639352C4.62133 0.226995 4.07532 1.56027e-06 3.49246 1.60743e-06C2.90992 1.65456e-06 2.36391 0.226995 1.95432 0.639353L0.651198 1.94992C-0.19675 2.80293 -0.19675 4.19155 0.651198 5.04423L15.5099 19.9915Z" fill="white"/>
</svg>
