<svg width="20" height="20" viewBox="0 0 20 20" fill="none" xmlns="http://www.w3.org/2000/svg">
<path fill-rule="evenodd" clip-rule="evenodd" d="M0 10.0212V18.0212C0 19.1262 0.895 20.0002 2 20.0002H4V8.00016H2C0.895 8.00016 0 8.91616 0 10.0212ZM19.929 11.3552L18.191 17.8902C17.905 19.1312 16.8 20.0002 15.526 20.0002H6V8.02116L7.719 1.82616C7.922 0.509159 9.29 -0.374841 10.676 0.157159C11.505 0.476159 12 1.33916 12 2.22816V7.02116C12 7.57316 12.448 8.00016 13 8.00016H17.264C19.023 8.00016 20.324 9.64216 19.929 11.3552Z" fill="currentColor"/>
</svg>
