<svg width="20" height="20" viewBox="0 0 20 20" fill="none" xmlns="http://www.w3.org/2000/svg">
<path fill-rule="evenodd" clip-rule="evenodd" d="M18.2387 1.76128C15.8904 -0.587093 12.0827 -0.587093 9.7344 1.76128L7.16555 4.33016L8.58278 5.7474L11.1516 3.17852C12.7182 1.61194 15.254 1.61194 16.8215 3.17852C18.3841 4.7421 18.3841 7.28491 16.8215 8.84849L14.2527 11.4174L15.6699 12.8346L18.2387 10.2657C20.5871 7.91736 20.5871 4.10965 18.2387 1.76128ZM8.84838 16.8207C8.09166 17.5785 7.08437 17.9954 6.01393 17.9954C4.9435 17.9954 3.9362 17.5785 3.17948 16.8207C1.61593 15.2582 1.61593 12.7143 3.17948 11.1518L5.74833 8.58288L4.3301 7.16464L1.76126 9.73351C-0.587086 12.0819 -0.587086 15.8896 1.76126 18.239C2.93593 19.4127 4.47443 20 6.01393 20C7.55343 20 9.09193 19.4127 10.2666 18.239L12.8355 15.6701L11.4172 14.2519L8.84838 16.8207ZM12.2631 6.31971L13.6804 7.73695L7.72182 13.6956L6.30459 12.2783L12.2631 6.31971Z" fill="black"/>
</svg>
