<svg width="21" height="20" viewBox="0 0 21 20" fill="none" xmlns="http://www.w3.org/2000/svg">
<path fill-rule="evenodd" clip-rule="evenodd" d="M3.00256 13.9997C4.65956 13.9997 6.00256 15.3427 6.00256 16.9997C6.00256 18.6567 4.65956 19.9997 3.00256 19.9997C1.34556 19.9997 0.00256348 18.6567 0.00256348 16.9997C0.00256348 15.3427 1.34556 13.9997 3.00256 13.9997ZM3.00256 15.9997C2.45156 15.9997 2.00256 16.4487 2.00256 16.9997C2.00256 17.5507 2.45156 17.9997 3.00256 17.9997C3.55356 17.9997 4.00256 17.5507 4.00256 16.9997C4.00256 16.4487 3.55356 15.9997 3.00256 15.9997ZM3.00256 -0.000299454C4.65956 -0.000299454 6.00256 1.3427 6.00256 2.9997C6.00256 4.6567 4.65956 5.9997 3.00256 5.9997C1.34556 5.9997 0.00256348 4.6567 0.00256348 2.9997C0.00256348 1.3427 1.34556 -0.000299454 3.00256 -0.000299454ZM3.00256 1.9997C2.45156 1.9997 2.00256 2.4487 2.00256 2.9997C2.00256 3.5507 2.45156 3.9997 3.00256 3.9997C3.55356 3.9997 4.00256 3.5507 4.00256 2.9997C4.00256 2.4487 3.55356 1.9997 3.00256 1.9997ZM3.00256 6.9997C4.65956 6.9997 6.00256 8.3427 6.00256 9.9997C6.00256 11.6567 4.65956 12.9997 3.00256 12.9997C1.34556 12.9997 0.00256348 11.6567 0.00256348 9.9997C0.00256348 8.3427 1.34556 6.9997 3.00256 6.9997ZM3.00256 8.9997C2.45156 8.9997 2.00256 9.4487 2.00256 9.9997C2.00256 10.5507 2.45156 10.9997 3.00256 10.9997C3.55356 10.9997 4.00256 10.5507 4.00256 9.9997C4.00256 9.4487 3.55356 8.9997 3.00256 8.9997ZM8.00256 17.9997H20.0026V15.9997H8.00256V17.9997ZM8.00256 3.9997H20.0026V1.9997H8.00256V3.9997ZM8.00256 10.9997H20.0026V8.9997H8.00256V10.9997Z" fill="currentColor"/>
</svg>
