<svg width="20" height="20" viewBox="0 0 20 20" fill="none" xmlns="http://www.w3.org/2000/svg">
<path fill-rule="evenodd" clip-rule="evenodd" d="M16.8727 9.94C16.8727 11.045 15.9777 11.94 14.8727 11.94C13.7677 11.94 12.8727 11.045 12.8727 9.94C12.8727 8.835 13.7677 7.94 14.8727 7.94C15.9777 7.94 16.8727 8.835 16.8727 9.94ZM11.8727 9.94C11.8727 11.045 10.9777 11.94 9.87273 11.94C8.76773 11.94 7.87273 11.045 7.87273 9.94C7.87273 8.835 8.76773 7.94 9.87273 7.94C10.9777 7.94 11.8727 8.835 11.8727 9.94ZM6.87273 9.94C6.87273 11.045 5.97773 11.94 4.87273 11.94C3.76773 11.94 2.87273 11.045 2.87273 9.94C2.87273 8.835 3.76773 7.94 4.87273 7.94C5.97773 7.94 6.87273 8.835 6.87273 9.94ZM17.4417 18C17.4417 18 14.8257 17.257 13.0187 17.257C11.5447 17.257 11.2087 17.518 9.95773 17.518C5.87773 17.518 2.58173 14.508 2.07573 10.851C1.40373 5.997 5.26873 1.999 9.95773 2C13.9007 2 17.0027 4.703 17.7327 8.083C18.0007 9.318 17.9737 10.544 17.6547 11.726C17.2747 13.131 17.2917 14.711 17.7037 16.294C17.9147 17.103 18.3027 18 17.4417 18ZM19.9177 16.859C19.9177 16.859 19.6407 15.794 19.6397 15.79C19.3367 14.63 19.2717 13.405 19.5847 12.248C19.9707 10.822 20.0357 9.268 19.6877 7.66C18.7677 3.405 14.8617 1.46231e-07 9.95773 1.46231e-07C3.99973 -0.000999854 -0.735272 5.127 0.0947279 11.125C0.736728 15.766 4.87073 19.518 9.95773 19.518C11.4267 19.518 11.7227 19.257 13.0197 19.257C14.5837 19.257 16.7957 19.919 16.7957 19.919C18.6837 20.392 20.3997 18.71 19.9177 16.859Z" fill="black"/>
</svg>
