<svg width="20" height="20" viewBox="0 0 20 20" fill="none" xmlns="http://www.w3.org/2000/svg">
<path fill-rule="evenodd" clip-rule="evenodd" d="M9.95773 0C3.99973 0 -0.735272 5.127 0.0947279 11.125C0.623728 14.947 3.52273 18.156 7.31973 19.168C8.73373 19.545 10.1937 19.625 11.6597 19.372C12.8837 19.16 14.1397 19.255 15.3387 19.555L16.7957 19.919C18.6847 20.392 20.4007 18.711 19.9177 16.859C19.9177 16.859 19.6477 15.823 19.6397 15.79C19.3377 14.63 19.2727 13.405 19.5847 12.248C19.9707 10.822 20.0357 9.269 19.6887 7.66C18.7707 3.415 14.8727 0 9.95773 0ZM9.95773 2C13.9097 2 17.0047 4.71 17.7337 8.083C18.0007 9.319 17.9737 10.544 17.6547 11.726C16.3047 16.718 20.2517 18.722 15.8237 17.614C14.3507 17.246 12.8157 17.142 11.3187 17.401C10.1637 17.601 8.99373 17.544 7.83473 17.236C4.80773 16.429 2.49273 13.863 2.07573 10.851C1.40473 5.997 5.26873 2 9.95773 2Z" fill="currentColor"/>
</svg>
