<svg width="21" height="20" viewBox="0 0 21 20" fill="none" xmlns="http://www.w3.org/2000/svg">
<path fill-rule="evenodd" clip-rule="evenodd" d="M14.0026 9.99969C14.0026 10.5517 13.5546 10.9997 13.0026 10.9997H11.0026V12.9997C11.0026 13.5517 10.5546 13.9997 10.0026 13.9997C9.45056 13.9997 9.00256 13.5517 9.00256 12.9997V10.9997H7.00256C6.45056 10.9997 6.00256 10.5517 6.00256 9.99969C6.00256 9.44769 6.45056 8.99969 7.00256 8.99969H9.00256V6.99969C9.00256 6.44769 9.45056 5.99969 10.0026 5.99969C10.5546 5.99969 11.0026 6.44769 11.0026 6.99969V8.99969H13.0026C13.5546 8.99969 14.0026 9.44769 14.0026 9.99969ZM10.0026 17.9997C5.59156 17.9997 2.00256 14.4107 2.00256 9.99969C2.00256 5.5887 5.59156 1.99969 10.0026 1.99969C14.4136 1.99969 18.0026 5.5887 18.0026 9.99969C18.0026 14.4107 14.4136 17.9997 10.0026 17.9997ZM10.0026 -0.000305176C4.47956 -0.000305176 0.00256348 4.4767 0.00256348 9.99969C0.00256348 15.5227 4.47956 19.9997 10.0026 19.9997C15.5256 19.9997 20.0026 15.5227 20.0026 9.99969C20.0026 4.4767 15.5256 -0.000305176 10.0026 -0.000305176Z" fill="currentColor"/>
</svg>
