<svg width="43" height="40" viewBox="0 0 43 40" fill="none" xmlns="http://www.w3.org/2000/svg">
<path d="M24.9047 0.141663C24.4076 -0.0954703 23.8219 -0.0326157 23.3933 0.313084L9.49675 11.4298H2.85702C1.2828 11.4298 0 12.7126 0 14.2868V25.7149C0 27.2891 1.2828 28.5719 2.85702 28.5719H9.49675L23.3905 39.6886C23.6504 39.8943 23.9676 40 24.2847 40C24.4961 40 24.7075 39.9543 24.9047 39.86C25.3989 39.62 25.7132 39.12 25.7132 38.5715V1.43018C25.7132 0.881632 25.3989 0.381653 24.9047 0.141663ZM8.57107 25.7149H2.85702V14.2868H8.57107V25.7149ZM22.8562 35.5973L11.4281 26.4548V13.5468L22.8562 4.40434V35.5973Z" fill="white"/>
<path d="M32.9471 9.89837C32.3843 9.34125 31.4815 9.34982 30.9272 9.9098C30.373 10.4726 30.3787 11.3754 30.9387 11.9297C33.0957 14.0639 34.2842 16.9295 34.2842 20.0008C34.2842 23.0721 33.0957 25.9377 30.9387 28.0719C30.3758 28.6262 30.3701 29.529 30.9272 30.0918C31.2072 30.3747 31.5758 30.5147 31.9415 30.5147C32.3043 30.5147 32.6672 30.3775 32.9471 30.1004C35.6527 27.4291 37.1413 23.8435 37.1413 20.0008C37.1413 16.1581 35.6527 12.5725 32.9471 9.89837Z" fill="white"/>
<path d="M36.9755 5.87282C36.4155 5.31856 35.5098 5.32142 34.9556 5.8814C34.4013 6.44137 34.4042 7.34705 34.9641 7.90131C38.2097 11.1212 39.9982 15.4181 39.9982 20.0008C39.9982 24.5835 38.2097 28.8804 34.9641 32.1003C34.4042 32.6546 34.4013 33.5602 34.9556 34.1202C35.2355 34.4031 35.6012 34.5431 35.9698 34.5431C36.3326 34.5431 36.6955 34.4059 36.9755 34.1288C40.7667 30.3689 42.8552 25.352 42.8552 20.0008C42.8552 14.6496 40.7667 9.63267 36.9755 5.87282Z" fill="white"/>
</svg>
