<svg width="43" height="43" viewBox="0 0 43 43" fill="none" xmlns="http://www.w3.org/2000/svg">
<path d="M24.9047 2.14166C24.4076 1.90453 23.8219 1.96738 23.3933 2.31308L9.49675 13.4298H2.85702C1.2828 13.4298 0 14.7126 0 16.2868V27.7149C0 29.2891 1.2828 30.5719 2.85702 30.5719H9.49675L23.3905 41.6886C23.6504 41.8943 23.9676 42 24.2847 42C24.4961 42 24.7075 41.9543 24.9047 41.86C25.3989 41.62 25.7132 41.12 25.7132 40.5715V3.43018C25.7132 2.88163 25.3989 2.38165 24.9047 2.14166ZM8.57107 27.7149H2.85702V16.2868H8.57107V27.7149ZM22.8562 37.5973L11.4281 28.4548V15.5468L22.8562 6.40434V37.5973Z" fill="#C6C3C3"/>
<path d="M32.9471 11.8984C32.3843 11.3413 31.4815 11.3498 30.9272 11.9098C30.373 12.4726 30.3787 13.3755 30.9387 13.9297C33.0957 16.0639 34.2842 18.9295 34.2842 22.0008C34.2842 25.0721 33.0957 27.9377 30.9387 30.0719C30.3758 30.6262 30.3701 31.529 30.9272 32.0918C31.2072 32.3747 31.5758 32.5147 31.9415 32.5147C32.3043 32.5147 32.6672 32.3775 32.9471 32.1004C35.6527 29.4291 37.1413 25.8435 37.1413 22.0008C37.1413 18.1581 35.6527 14.5726 32.9471 11.8984Z" fill="#C6C3C3"/>
<path d="M36.9755 7.87283C36.4155 7.31857 35.5098 7.32143 34.9556 7.8814C34.4013 8.44138 34.4042 9.34706 34.9641 9.90132C38.2097 13.1212 39.9982 17.4181 39.9982 22.0008C39.9982 26.5835 38.2097 30.8804 34.9641 34.1003C34.4042 34.6546 34.4013 35.5603 34.9556 36.1202C35.2355 36.4031 35.6012 36.5431 35.9698 36.5431C36.3326 36.5431 36.6955 36.4059 36.9755 36.1288C40.7667 32.369 42.8552 27.352 42.8552 22.0008C42.8552 16.6496 40.7667 11.6327 36.9755 7.87283Z" fill="#C6C3C3"/>
<path fill-rule="evenodd" clip-rule="evenodd" d="M0.93934 0.93934C1.52513 0.353553 2.47487 0.353553 3.06066 0.93934L21.5 19.3787L39.9393 0.93934C40.5251 0.353553 41.4749 0.353553 42.0607 0.93934C42.6464 1.52513 42.6464 2.47487 42.0607 3.06066L23.6213 21.5L42.0607 39.9393C42.6464 40.5251 42.6464 41.4749 42.0607 42.0607C41.4749 42.6464 40.5251 42.6464 39.9393 42.0607L21.5 23.6213L3.06066 42.0607C2.47487 42.6464 1.52513 42.6464 0.93934 42.0607C0.353553 41.4749 0.353553 40.5251 0.93934 39.9393L19.3787 21.5L0.93934 3.06066C0.353553 2.47487 0.353553 1.52513 0.93934 0.93934Z" fill="#C6C3C3"/>
</svg>
