<svg viewBox="0 0 20 20" fill="none" xmlns="http://www.w3.org/2000/svg">
<path fill-rule="evenodd" clip-rule="evenodd" d="M17 10V7.051L18 10H17ZM18 17.051C18 17.603 17.552 18 17 18H3C2.448 18 2 17.603 2 17.051V12H5C5.552 12 6 12.499 6 13.051V14.051C6 15.155 6.895 16 8 16H12C13.105 16 14 15.155 14 14.051V13.051C14 12.499 14.448 12 15 12H18V17.051ZM3 7.051V10H2L3 7.051ZM5 3.051C5 2.499 5.448 2 6 2H14C14.552 2 15 2.499 15 3.051V10H14C12.895 10 12 10.946 12 12.051V13.051C12 13.603 11.552 14 11 14H10.967L10.939 7.755C10.937 7.308 11.477 7.096 11.792 7.412L12.105 7.73C12.495 8.121 13.129 8.124 13.519 7.734C13.91 7.343 13.91 6.712 13.519 6.321C11.672 4.475 12.237 5.039 11.398 4.201C10.617 3.42 9.35 3.42 8.569 4.201C8.098 4.673 6.873 5.897 6.387 6.383C6.001 6.77 5.996 7.395 6.377 7.787C6.766 8.187 7.407 8.192 7.802 7.797L8.177 7.422C8.492 7.107 9.031 7.306 9.03 7.752L9.011 14H9C8.448 14 8 13.603 8 13.051V12.051C8 10.946 7.105 10 6 10H5V3.051ZM18 4H17V2.051C17 0.946 16.105 0 15 0H5C3.895 0 3 0.946 3 2.051V4H2L0 10.051V18.051C0 19.155 0.895 20 2 20H18C19.105 20 20 19.155 20 18.051V10.051L18 4Z" fill="currentColor"/>
</svg>
