<svg viewBox="0 0 20 21" fill="none" xmlns="http://www.w3.org/2000/svg">
<path fill-rule="evenodd" clip-rule="evenodd" d="M16.5623 18.049H3.43793C2.73154 18.049 2.20991 17.352 2.47634 16.7111C3.71252 13.747 6.61669 12.049 9.99961 12.049C13.3835 12.049 16.2877 13.747 17.5239 16.7111C17.7903 17.352 17.2687 18.049 16.5623 18.049ZM5.91642 6.04905C5.91642 3.84305 7.74875 2.04905 9.99961 2.04905C12.2515 2.04905 14.0828 3.84305 14.0828 6.04905C14.0828 8.25505 12.2515 10.049 9.99961 10.049C7.74875 10.049 5.91642 8.25505 5.91642 6.04905ZM19.9554 17.685C19.2133 14.326 16.892 11.847 13.8368 10.722C15.4558 9.44505 16.4 7.38005 16.0529 5.11905C15.6507 2.49605 13.4234 0.397049 10.7346 0.0910492C7.02296 -0.331951 3.87483 2.49805 3.87483 6.04905C3.87483 7.93905 4.76905 9.62305 6.16345 10.722C3.10719 11.847 0.78692 14.326 0.0437799 17.685C-0.22571 18.906 0.778753 20.049 2.05373 20.049H17.9455C19.2215 20.049 20.2259 18.906 19.9554 17.685Z" fill="currentColor"/>
</svg>
