<svg width="20" height="20" viewBox="0 0 20 20" fill="none" xmlns="http://www.w3.org/2000/svg">
<path fill-rule="evenodd" clip-rule="evenodd" d="M9 6.96733H11C11.552 6.96733 12 7.41645 12 7.96982C12 8.5232 11.552 8.97232 11 8.97232H9V10.9773C9 11.5307 8.552 11.9798 8 11.9798C7.448 11.9798 7 11.5307 7 10.9773V8.97232H5C4.448 8.97232 4 8.5232 4 7.96982C4 7.41645 4.448 6.96733 5 6.96733H7V4.96234C7 4.40897 7.448 3.95985 8 3.95985C8.552 3.95985 9 4.40897 9 4.96234V6.96733ZM19.707 19.706C19.317 20.098 18.683 20.098 18.293 19.706L14.343 15.7462L15.757 14.3286L19.707 18.2885C20.098 18.6795 20.098 19.315 19.707 19.706ZM8 14.0349C4.692 14.0349 2 11.3372 2 8.01995C2 4.7037 4.692 2.00499 8 2.00499C11.308 2.00499 14 4.7037 14 8.01995C14 11.3372 11.308 14.0349 8 14.0349ZM8 0C3.582 0 0 3.59093 0 8.01995C0 12.45 3.582 16.0399 8 16.0399C12.418 16.0399 16 12.45 16 8.01995C16 3.59093 12.418 0 8 0Z" fill="black"/>
</svg>
