<svg width="21" height="21" viewBox="0 0 21 21" fill="none" xmlns="http://www.w3.org/2000/svg">
<path fill-rule="evenodd" clip-rule="evenodd" d="M5.11942 7.01704H11.2596C11.8245 7.01704 12.283 7.46616 12.283 8.01954C12.283 8.57292 11.8245 9.02203 11.2596 9.02203H5.11942C4.55452 9.02203 4.09605 8.57292 4.09605 8.01954C4.09605 7.46616 4.55452 7.01704 5.11942 7.01704ZM19.7025 18.3382C20.1026 18.7292 20.1026 19.3648 19.7025 19.7557C19.3023 20.1477 18.6545 20.1477 18.2554 19.7557L14.0872 15.7959L15.5343 14.3784L19.7025 18.3382ZM8.18953 14.0846C4.80422 14.0846 2.04931 11.3869 2.04931 8.06966C2.04931 4.75341 4.80422 2.0547 8.18953 2.0547C11.5748 2.0547 14.3298 4.75341 14.3298 8.06966C14.3298 11.3869 11.5748 14.0846 8.18953 14.0846ZM8.18953 0.0497131C3.66828 0.0497131 0.00256348 3.64065 0.00256348 8.06966C0.00256348 12.4997 3.66828 16.0896 8.18953 16.0896C12.7108 16.0896 16.3765 12.4997 16.3765 8.06966C16.3765 3.64065 12.7108 0.0497131 8.18953 0.0497131Z" fill="black"/>
</svg>
